<?xml version="1.0" encoding="UTF-8" standalone="no" ?>
<!DOCTYPE svg PUBLIC "-//W3C//DTD SVG 1.1//EN" "http://www.w3.org/Graphics/SVG/1.1/DTD/svg11.dtd">
<svg xmlns="http://www.w3.org/2000/svg" xmlns:xlink="http://www.w3.org/1999/xlink" version="1.1" width="1280" height="1024" viewBox="0 0 1280 1024" xml:space="preserve">
<desc>Created with Fabric.js 4.4.0</desc>
<defs>
</defs>
<g transform="matrix(1 0 0 1 640 512)" id="background-logo"  >
<rect style="stroke: none; stroke-width: 0; stroke-dasharray: none; stroke-linecap: butt; stroke-dashoffset: 0; stroke-linejoin: miter; stroke-miterlimit: 4; fill: rgb(255,255,255); fill-opacity: 0; fill-rule: nonzero; opacity: 1;"  paint-order="stroke"  x="-640" y="-512" rx="0" ry="0" width="1280" height="1024" />
</g>
<g transform="matrix(1.9211538461538462 0 0 1.9211538461538462 640.2547429620563 418.12578877214605)" id="logo-logo"  >
<g style=""  paint-order="stroke"   >
		<g transform="matrix(0.03178084957195159 0 0 -0.03178084957195159 -14.499194019562424 -91.33979827404784)"  >
<linearGradient id="SVGID_205949" gradientUnits="userSpaceOnUse" gradientTransform="matrix(1 0 0 1 5953.67694640519 9029.620000000003)"  x1="0" y1="0" x2="0" y2="3064">
<stop offset="0%" style="stop-color:rgb(250,217,97);stop-opacity: 1"/>
<stop offset="100%" style="stop-color:rgb(247,107,28);stop-opacity: 1"/>
</linearGradient>
<path style="stroke: none; stroke-width: 1; stroke-dasharray: none; stroke-linecap: butt; stroke-dashoffset: 0; stroke-linejoin: miter; stroke-miterlimit: 4; fill: url(#SVGID_205949); fill-rule: nonzero; opacity: 1;"  paint-order="stroke"  transform=" translate(-7848.873473202595, -10561.458778726923)" d="M 9744.07 9029.62 C 9112.59 10027.8 7117.72 12955.2 6089.53 11846.4 C 5834.77 11571.7 5959.86 11208.6 6285.82 10820.7 C 7293.91 10581 8605.34 9940.21 9744.07 9029.62" stroke-linecap="round" />
</g>
		<g transform="matrix(0.03178084957195159 0 0 -0.03178084957195159 0 20.867306419965445)"  >
<linearGradient id="SVGID_205951" gradientUnits="userSpaceOnUse" gradientTransform="matrix(1 0 0 1 4533.098588811641 3280.8899999999994)"  x1="0" y1="0" x2="0" y2="7499">
<stop offset="0%" style="stop-color:rgb(250,217,97);stop-opacity: 1"/>
<stop offset="100%" style="stop-color:rgb(247,107,28);stop-opacity: 1"/>
</linearGradient>
<path style="stroke: none; stroke-width: 1; stroke-dasharray: none; stroke-linecap: butt; stroke-dashoffset: 0; stroke-linejoin: miter; stroke-miterlimit: 4; fill: url(#SVGID_205951); fill-rule: nonzero; opacity: 1;"  paint-order="stroke"  transform=" translate(-8305.177212195907, -7030.18025668484)" d="M 11120.7 6362.73 C 11039.400000000001 6272.86 10855.800000000001 6306.33 10710.6 6437.41 C 10565.7 6568.59 10514.2 6747.93 10595.5 6837.8099999999995 C 10676.8 6927.7 10860.4 6894.44 11005.4 6763.259999999999 C 11150.5 6631.959999999999 11202 6452.629999999999 11120.699999999999 6362.73 z M 12040.900000000001 5496.289999999999 C 12039.900000000001 5500.959999999999 12039.500000000002 5505.719999999999 12038.400000000001 5510.509999999999 C 11239 9168.96 5053.95 11993.3 4554.2 10251.8 C 4180.96 8951.15 8882.71 8194.46 8882.71 8194.46 C 8981.289999999999 8177.289999999999 9056.4 8091.429999999999 9056.4 7987.959999999999 C 9056.4 7880.789999999999 8975.76 7793.399999999999 8871.949999999999 7780.799999999999 C 6120.73 7892.09 5628.26 6198.73 5628.26 6198.73 C 5105.69 4506.24 6724.27 3280.89 6724.27 3280.89 C 5944 6417.62 9305.4 5108.37 9305.4 5108.37 C 12077.099999999999 4161.37 12174.4 4915.22 12040.9 5496.29" stroke-linecap="round" />
</g>
</g>
</g>
<g transform="matrix(1.9211538461538462 0 0 1.9211538461538462 643.161801443126 792.824070386294)" id="text-logo-path-group"  >
<g style=""  paint-order="stroke"   >
		<g transform="matrix(1 0 0 1 0 0)" id="text-logo-path-0"  >
<path style="stroke: rgb(255,255,255); stroke-width: 0; stroke-dasharray: none; stroke-linecap: butt; stroke-dashoffset: 0; stroke-linejoin: miter; stroke-miterlimit: 4; fill: rgb(255,145,77); fill-rule: nonzero; opacity: 1;"  paint-order="stroke"  transform=" translate(-118.98, 18.105)" d="M 4.87 -5.86 L 4.87 -5.86 L 4.87 -45.45 Q 5.71 -45.59 7.51 -45.87 Q 9.3 -46.14 10.95 -46.14 L 10.95 -46.14 Q 12.67 -46.14 13.99 -45.87 Q 15.31 -45.59 16.2 -44.92 Q 17.1 -44.24 17.56 -43.05 Q 18.02 -41.86 18.02 -39.92 L 18.02 -39.92 L 18.02 -27.98 L 33.62 -45.89 Q 38.71 -45.89 40.92 -43.98 Q 43.14 -42.08 43.14 -39.44 L 43.14 -39.44 Q 43.14 -37.5 42.15 -35.78 Q 41.16 -34.06 39 -31.86 L 39 -31.86 L 29.63 -22.49 Q 31.49 -20.4 33.56 -18.15 Q 35.63 -15.89 37.61 -13.75 Q 39.59 -11.61 41.44 -9.67 Q 43.29 -7.73 44.64 -6.3 L 44.64 -6.3 Q 44.64 -4.65 44.04 -3.37 Q 43.43 -2.09 42.41 -1.19 Q 41.38 -0.29 40.12 0.15 Q 38.85 0.59 37.43 0.59 L 37.43 0.59 Q 34.35 0.59 32.39 -0.95 Q 30.43 -2.49 28.64 -4.58 L 28.64 -4.58 L 18.09 -16.88 L 18.09 -0.29 Q 17.25 -0.07 15.45 0.15 Q 13.66 0.37 11.94 0.37 L 11.94 0.37 Q 10.22 0.37 8.9 0.11 Q 7.58 -0.15 6.68 -0.82 Q 5.79 -1.5 5.33 -2.69 Q 4.87 -3.88 4.87 -5.86 Z M 46.91 -18.75 L 46.91 -18.75 Q 46.91 -23.69 48.54 -27.26 Q 50.17 -30.83 52.79 -33.12 Q 55.41 -35.41 58.78 -36.49 Q 62.15 -37.57 65.66 -37.57 L 65.66 -37.57 Q 69.65 -37.57 72.91 -36.38 Q 76.17 -35.19 78.53 -33.09 Q 80.9 -30.98 82.21 -28.05 Q 83.53 -25.12 83.53 -21.68 L 83.53 -21.68 Q 83.53 -19.12 82.1 -17.78 Q 80.68 -16.44 78.11 -16.04 L 78.11 -16.04 L 59.62 -13.26 Q 60.46 -10.77 62.99 -9.54 Q 65.52 -8.31 68.85 -8.31 L 68.85 -8.31 Q 71.92 -8.31 74.65 -9.1 Q 77.38 -9.89 79.1 -10.95 L 79.1 -10.95 Q 80.31 -10.22 81.13 -8.86 Q 81.96 -7.51 81.96 -6.01 L 81.96 -6.01 Q 81.96 -2.64 78.81 -0.99 L 78.81 -0.99 Q 76.39 0.29 73.41 0.75 Q 70.42 1.21 67.79 1.21 L 67.79 1.21 Q 63.35 1.21 59.56 -0.04 Q 55.77 -1.28 52.97 -3.75 Q 50.17 -6.23 48.54 -9.98 Q 46.91 -13.73 46.91 -18.75 Z M 58.7 -21.68 L 58.7 -21.68 L 71.52 -23.77 Q 71.3 -25.27 69.87 -26.77 Q 68.44 -28.27 65.66 -28.27 L 65.66 -28.27 Q 63.87 -28.27 62.57 -27.67 Q 61.27 -27.06 60.44 -26.13 Q 59.62 -25.2 59.2 -24.04 Q 58.78 -22.89 58.7 -21.68 Z M 89.65 7.36 L 89.65 7.36 L 89.65 -28.64 Q 89.65 -30.65 90.53 -31.93 Q 91.41 -33.22 92.91 -34.28 L 92.91 -34.28 Q 95.21 -35.78 98.66 -36.68 Q 102.1 -37.57 106.38 -37.57 L 106.38 -37.57 Q 110.89 -37.57 114.75 -36.42 Q 118.62 -35.27 121.4 -32.85 Q 124.18 -30.43 125.76 -26.81 Q 127.33 -23.18 127.33 -18.16 L 127.33 -18.16 Q 127.33 -13.37 125.98 -9.76 Q 124.62 -6.15 122.15 -3.72 Q 119.68 -1.28 116.18 -0.07 Q 112.68 1.14 108.4 1.14 L 108.4 1.14 Q 105.18 1.14 102.43 0.15 L 102.43 0.15 L 102.43 12.6 Q 101.7 12.82 100.03 13.09 Q 98.36 13.37 96.64 13.37 L 96.64 13.37 Q 95 13.37 93.68 13.13 Q 92.36 12.89 91.46 12.21 Q 90.56 11.54 90.11 10.38 Q 89.65 9.23 89.65 7.36 Z M 102.36 -26.48 L 102.36 -9.96 Q 103.27 -9.52 104.3 -9.23 Q 105.32 -8.94 106.53 -8.94 L 106.53 -8.94 Q 114.26 -8.94 114.26 -18.16 L 114.26 -18.16 Q 114.26 -22.96 112.35 -25.29 Q 110.45 -27.61 106.82 -27.61 L 106.82 -27.61 Q 105.4 -27.61 104.28 -27.26 Q 103.16 -26.92 102.36 -26.48 L 102.36 -26.48 Z M 133.78 -5.38 L 133.78 -5.38 L 133.78 -48.89 Q 134.62 -49.04 136.21 -49.31 Q 137.81 -49.58 139.45 -49.58 L 139.45 -49.58 Q 141.1 -49.58 142.42 -49.35 Q 143.74 -49.11 144.64 -48.45 Q 145.53 -47.79 146.03 -46.62 Q 146.52 -45.45 146.52 -43.58 L 146.52 -43.58 L 146.52 -0.07 Q 145.68 0.07 144.07 0.33 Q 142.46 0.59 140.81 0.59 L 140.81 0.59 Q 139.16 0.59 137.84 0.37 Q 136.52 0.15 135.63 -0.53 Q 134.73 -1.21 134.25 -2.36 Q 133.78 -3.52 133.78 -5.38 Z M 152.93 -18.24 L 152.93 -18.24 Q 152.93 -22.67 154.36 -26.26 Q 155.79 -29.85 158.39 -32.35 Q 160.99 -34.86 164.58 -36.22 Q 168.16 -37.57 172.6 -37.57 L 172.6 -37.57 Q 177.03 -37.57 180.63 -36.18 Q 184.24 -34.79 186.82 -32.28 Q 189.4 -29.77 190.83 -26.18 Q 192.26 -22.6 192.26 -18.24 L 192.26 -18.24 Q 192.26 -13.59 190.83 -9.94 Q 189.4 -6.3 186.82 -3.83 Q 184.24 -1.35 180.63 -0.07 Q 177.03 1.21 172.6 1.21 L 172.6 1.21 Q 168.16 1.21 164.58 -0.15 Q 160.99 -1.5 158.39 -4.01 Q 155.79 -6.52 154.36 -10.13 Q 152.93 -13.73 152.93 -18.24 Z M 166 -18.24 L 166 -18.24 Q 166 -13.66 167.76 -11.22 Q 169.52 -8.79 172.67 -8.79 L 172.67 -8.79 Q 175.82 -8.79 177.5 -11.26 Q 179.19 -13.73 179.19 -18.24 L 179.19 -18.24 Q 179.19 -22.74 177.47 -25.18 Q 175.74 -27.61 172.6 -27.61 L 172.6 -27.61 Q 169.45 -27.61 167.72 -25.18 Q 166 -22.74 166 -18.24 Z M 195.08 -34.57 L 195.08 -34.57 Q 196.14 -35.63 197.9 -36.42 Q 199.66 -37.21 201.75 -37.21 L 201.75 -37.21 Q 204.38 -37.21 206.1 -36.11 Q 207.82 -35.01 208.67 -32.01 L 208.67 -32.01 L 214.56 -11.39 L 214.89 -11.39 Q 215.81 -13.95 216.65 -16.96 Q 217.49 -19.96 218.32 -23.14 Q 219.14 -26.33 219.85 -29.52 Q 220.57 -32.7 221.12 -35.78 L 221.12 -35.78 Q 223.83 -37.21 227.01 -37.21 L 227.01 -37.21 Q 229.65 -37.21 231.37 -36.07 Q 233.09 -34.94 233.09 -32.19 L 233.09 -32.19 Q 233.09 -30.18 232.58 -27.5 Q 232.07 -24.83 231.21 -21.83 Q 230.35 -18.82 229.17 -15.64 Q 228 -12.45 226.72 -9.38 Q 225.44 -6.3 224.1 -3.57 Q 222.77 -0.84 221.48 1.35 L 221.48 1.35 Q 219.4 5.02 217.58 7.34 Q 215.77 9.67 214.12 10.99 Q 212.48 12.3 210.83 12.78 Q 209.18 13.26 207.39 13.26 L 207.39 13.26 Q 204.24 13.26 202.28 11.39 Q 200.32 9.52 199.95 6.52 L 199.95 6.52 Q 202.37 4.65 204.77 2.36 Q 207.17 0.07 209.11 -2.31 L 209.11 -2.31 Q 207.82 -2.67 206.36 -4.08 Q 204.9 -5.49 203.17 -9.3 L 203.17 -9.3 Q 202.33 -11.17 201.4 -13.49 Q 200.46 -15.82 199.46 -18.82 Q 198.45 -21.83 197.37 -25.69 Q 196.29 -29.55 195.08 -34.57 Z" stroke-linecap="round" />
</g>
</g>
</g>
</svg>